<svg width="116" height="106" viewBox="0 0 116 106" fill="none" xmlns="http://www.w3.org/2000/svg">
<path fill-rule="evenodd" clip-rule="evenodd" d="M74.5165 0.574217C86.6781 2.11581 97.0812 9.0975 105.039 18.3778C112.322 26.8697 115.383 37.5968 115.831 48.7516C116.302 60.4925 114.524 72.1491 107.578 81.6513C99.2817 93.0004 88.572 104.119 74.5165 105.27C59.7136 106.482 47.3398 96.5105 35.5269 87.5507C20.9898 76.5248 0.103985 66.9402 0.000404228 48.7516C-0.103241 30.5515 19.7456 19.426 35.0825 9.51015C46.8345 1.91206 60.6143 -1.18801 74.5165 0.574217Z" fill="#F3F6FF"/>
<path d="M72 49.76H68.5V48.5933H63.8333V55.5933H68.5V54.4266H72V56.76C72 57.3788 71.7542 57.9723 71.3166 58.4099C70.879 58.8475 70.2855 59.0933 69.6667 59.0933H62.6667C62.0478 59.0933 61.4543 58.8475 61.0167 58.4099C60.5792 57.9723 60.3333 57.3788 60.3333 56.76V47.4266C60.3333 46.8078 60.5792 46.2143 61.0167 45.7767C61.4543 45.3391 62.0478 45.0933 62.6667 45.0933H69.6667C70.2855 45.0933 70.879 45.3391 71.3166 45.7767C71.7542 46.2143 72 46.8078 72 47.4266V49.76ZM55.6667 49.76H52.1667V48.5933H47.5V55.5933H52.1667V54.4266H55.6667V56.76C55.6667 57.3788 55.4208 57.9723 54.9832 58.4099C54.5457 58.8475 53.9522 59.0933 53.3333 59.0933H46.3333C45.7145 59.0933 45.121 58.8475 44.6834 58.4099C44.2458 57.9723 44 57.3788 44 56.76V47.4266C44 46.8078 44.2458 46.2143 44.6834 45.7767C45.121 45.3391 45.7145 45.0933 46.3333 45.0933H53.3333C53.9522 45.0933 54.5457 45.3391 54.9832 45.7767C55.4208 46.2143 55.6667 46.8078 55.6667 47.4266V49.76ZM74.3333 33.4266H41.6667C39.0767 33.4266 37 35.5033 37 38.0933V66.0933C37 67.331 37.4917 68.518 38.3668 69.3931C39.242 70.2683 40.429 70.76 41.6667 70.76H74.3333C75.571 70.76 76.758 70.2683 77.6332 69.3931C78.5083 68.518 79 67.331 79 66.0933V38.0933C79 35.5033 76.9 33.4266 74.3333 33.4266Z" fill="#5C6DA1"/>
</svg>
