<svg width="116" height="106" viewBox="0 0 116 106" fill="none" xmlns="http://www.w3.org/2000/svg">
<path fill-rule="evenodd" clip-rule="evenodd" d="M74.5165 0.574217C86.6781 2.11581 97.0812 9.0975 105.039 18.3778C112.322 26.8697 115.383 37.5968 115.831 48.7516C116.302 60.4925 114.524 72.1491 107.578 81.6513C99.2817 93.0004 88.572 104.119 74.5165 105.27C59.7136 106.482 47.3398 96.5105 35.5269 87.5507C20.9898 76.5248 0.103985 66.9402 0.000404228 48.7516C-0.103241 30.5515 19.7456 19.426 35.0825 9.51015C46.8345 1.91206 60.6143 -1.18801 74.5165 0.574217Z" fill="#F3F6FF"/>
<g clip-path="url(#clip0_183_435)">
<path d="M57.8319 70.9417H39.8148C36.9835 70.9417 34.667 68.6252 34.667 65.7939V34.9073C34.667 32.076 36.9835 29.7595 39.8148 29.7595H42.3886L47.5364 40.0551H55.2581L50.1103 29.7595H55.2581L60.4058 40.0551H68.1275L62.9797 29.7595H68.1275L73.2752 40.0551H80.9969L75.8491 29.7595H86.1447V52.9245C84.8577 50.8654 83.056 49.0636 80.9969 47.7767V45.2028H44.4477L39.8148 36.1942V65.7939H55.7728C56.2876 67.5956 56.8024 69.3973 57.8319 70.9417ZM81.7691 68.1104C82.7986 66.3087 83.5708 64.2496 83.5708 61.9331C83.5708 55.4984 78.423 50.3506 71.9883 50.3506C65.5536 50.3506 60.4058 55.4984 60.4058 61.9331C60.4058 68.3678 65.5536 73.5155 71.9883 73.5155C74.3048 73.5155 76.3639 73.0008 78.1656 71.7138L86.1447 79.6929L89.7481 76.0894L81.7691 68.1104ZM71.9883 68.3678C68.3849 68.3678 65.5536 65.5365 65.5536 61.9331C65.5536 58.3296 68.3849 55.4984 71.9883 55.4984C75.5917 55.4984 78.423 58.3296 78.423 61.9331C78.423 65.5365 75.5917 68.3678 71.9883 68.3678Z" fill="#5C6DA1"/>
</g>
<defs>
<clipPath id="clip0_183_435">
<rect width="56" height="56" fill="white" transform="translate(30 25.093)"/>
</clipPath>
</defs>
</svg>
