<svg width="95" height="89" viewBox="0 0 95 89" fill="none" xmlns="http://www.w3.org/2000/svg">
<path d="M88.5288 35.0383C86.6331 34.6381 85.4349 32.801 85.8373 30.9448C86.2397 29.0885 88.0947 27.8959 89.9904 28.2961C91.8861 28.6962 93.0843 30.5333 92.6819 32.3895C92.2795 34.2458 90.4245 35.4384 88.5288 35.0383Z" fill="#E0CCE1" stroke="#CBAACD"/>
<path d="M70.9272 31.3229C69.0315 30.9228 67.8333 29.0857 68.2357 27.2294C68.6381 25.3732 70.4931 24.1806 72.3888 24.5807C74.2845 24.9809 75.4827 26.818 75.0803 28.6742C74.6779 30.5304 72.8229 31.7231 70.9272 31.3229Z" fill="#E0CCE1" stroke="#CBAACD"/>
<path d="M53.3257 27.6073C51.43 27.2072 50.2318 25.3701 50.6342 23.5139C51.0366 21.6576 52.8915 20.465 54.7872 20.8651C56.6829 21.2653 57.8811 23.1024 57.4787 24.9586C57.0763 26.8149 55.2214 28.0075 53.3257 27.6073Z" fill="#E0CCE1" stroke="#CBAACD"/>
<path d="M35.7231 23.892C33.8274 23.4919 32.6292 21.6548 33.0316 19.7985C33.434 17.9423 35.289 16.7497 37.1847 17.1498C39.0804 17.55 40.2786 19.3871 39.8762 21.2433C39.4738 23.0995 37.6188 24.2922 35.7231 23.892Z" fill="#E0CCE1" stroke="#CBAACD"/>
<path d="M18.1216 20.1764C16.2259 19.7763 15.0277 17.9392 15.4301 16.083C15.8325 14.2267 17.6874 13.0341 19.5831 13.4342C21.4788 13.8344 22.677 15.6715 22.2746 17.5277C21.8722 19.384 20.0173 20.5766 18.1216 20.1764Z" fill="#E0CCE1" stroke="#CBAACD"/>
<path d="M0.520001 16.4611C-1.3757 16.061 -2.57389 14.2238 -2.17149 12.3676C-1.7691 10.5114 0.0858847 9.31876 1.98159 9.71891C3.87729 10.1191 5.07548 11.9562 4.67308 13.8124C4.27069 15.6686 2.4157 16.8613 0.520001 16.4611Z" fill="#E0CCE1" stroke="#CBAACD"/>
<path d="M84.7632 52.4071C82.8675 52.007 81.6693 50.1699 82.0717 48.3137C82.4741 46.4574 84.329 45.2648 86.2247 45.665C88.1205 46.0651 89.3186 47.9022 88.9162 49.7584C88.5139 51.6147 86.6589 52.8073 84.7632 52.4071Z" fill="#E0CCE1" stroke="#CBAACD"/>
<path d="M67.1616 48.6918C65.2659 48.2917 64.0677 46.4546 64.4701 44.5983C64.8725 42.7421 66.7275 41.5495 68.6232 41.9496C70.5189 42.3498 71.7171 44.1869 71.3147 46.0431C70.9123 47.8993 69.0573 49.092 67.1616 48.6918Z" fill="#E0CCE1" stroke="#CBAACD"/>
<path d="M49.56 44.9762C47.6643 44.5761 46.4661 42.739 46.8685 40.8828C47.2709 39.0265 49.1259 37.8339 51.0216 38.234C52.9173 38.6342 54.1155 40.4713 53.7131 42.3275C53.3107 44.1837 51.4557 45.3764 49.56 44.9762Z" fill="#E0CCE1" stroke="#CBAACD"/>
<path d="M31.9585 41.2609C30.0628 40.8608 28.8646 39.0237 29.267 37.1674C29.6694 35.3112 31.5244 34.1186 33.4201 34.5187C35.3158 34.9189 36.514 36.756 36.1116 38.6122C35.7092 40.4684 33.8542 41.6611 31.9585 41.2609Z" fill="#E0CCE1" stroke="#CBAACD"/>
<path d="M14.3559 37.5456C12.4602 37.1454 11.262 35.3083 11.6644 33.4521C12.0668 31.5959 13.9218 30.4032 15.8175 30.8034C17.7132 31.2035 18.9114 33.0406 18.509 34.8969C18.1066 36.7531 16.2516 37.9457 14.3559 37.5456Z" fill="#E0CCE1" stroke="#CBAACD"/>
<path d="M-3.24562 33.83C-5.14133 33.4299 -6.33952 31.5927 -5.93712 29.7365C-5.53473 27.8803 -3.67974 26.6877 -1.78404 27.0878C0.111661 27.488 1.30985 29.3251 0.907456 31.1813C0.505061 33.0375 -1.34992 34.2302 -3.24562 33.83Z" fill="#E0CCE1" stroke="#CBAACD"/>
<path d="M80.9985 69.7761C79.1028 69.3759 77.9046 67.5388 78.307 65.6826C78.7094 63.8263 80.5644 62.6337 82.4601 63.0338C84.3558 63.434 85.554 65.2711 85.1516 67.1273C84.7492 68.9836 82.8942 70.1762 80.9985 69.7761Z" fill="#E0CCE1" stroke="#CBAACD"/>
<path d="M63.397 66.0605C61.5013 65.6603 60.3031 63.8232 60.7055 61.967C61.1079 60.1108 62.9628 58.9181 64.8585 59.3183C66.7542 59.7184 67.9524 61.5555 67.55 63.4118C67.1476 65.268 65.2927 66.4606 63.397 66.0605Z" fill="#E0CCE1" stroke="#CBAACD"/>
<path d="M45.7944 62.3451C43.8987 61.945 42.7005 60.1079 43.1029 58.2517C43.5053 56.3954 45.3603 55.2028 47.256 55.6029C49.1517 56.0031 50.3499 57.8402 49.9475 59.6964C49.5451 61.5527 47.6901 62.7453 45.7944 62.3451Z" fill="#E0CCE1" stroke="#CBAACD"/>
<path d="M28.1929 58.6298C26.2972 58.2297 25.099 56.3925 25.5014 54.5363C25.9038 52.6801 27.7587 51.4875 29.6544 51.8876C31.5501 52.2878 32.7483 54.1249 32.3459 55.9811C31.9435 57.8373 30.0886 59.03 28.1929 58.6298Z" fill="#E0CCE1" stroke="#CBAACD"/>
<path d="M10.5913 54.9142C8.69559 54.5141 7.4974 52.677 7.89979 50.8207C8.30219 48.9645 10.1572 47.7719 12.0529 48.172C13.9486 48.5722 15.1468 50.4093 14.7444 52.2655C14.342 54.1217 12.487 55.3144 10.5913 54.9142Z" fill="#E0CCE1" stroke="#CBAACD"/>
<path d="M77.2329 87.1449C75.3372 86.7448 74.139 84.9077 74.5414 83.0515C74.9438 81.1952 76.7988 80.0026 78.6945 80.4027C80.5902 80.8029 81.7884 82.64 81.386 84.4962C80.9836 86.3525 79.1286 87.5451 77.2329 87.1449Z" fill="#E0CCE1" stroke="#CBAACD"/>
<path d="M59.6313 83.4294C57.7356 83.0292 56.5374 81.1921 56.9398 79.3359C57.3422 77.4797 59.1972 76.287 61.0929 76.6872C62.9886 77.0873 64.1868 78.9244 63.7844 80.7807C63.382 82.6369 61.527 83.8295 59.6313 83.4294Z" fill="#E0CCE1" stroke="#CBAACD"/>
<path d="M42.0298 79.714C40.1341 79.3139 38.9359 77.4768 39.3383 75.6205C39.7407 73.7643 41.5957 72.5717 43.4914 72.9718C45.3871 73.372 46.5852 75.2091 46.1828 77.0653C45.7805 78.9215 43.9255 80.1142 42.0298 79.714Z" fill="#E0CCE1" stroke="#CBAACD"/>
<path d="M24.4272 75.9985C22.5315 75.5983 21.3333 73.7612 21.7357 71.905C22.1381 70.0488 23.9931 68.8561 25.8888 69.2563C27.7845 69.6564 28.9827 71.4935 28.5803 73.3497C28.1779 75.206 26.3229 76.3986 24.4272 75.9985Z" fill="#E0CCE1" stroke="#CBAACD"/>
<path d="M6.82566 72.2831C4.92996 71.883 3.73177 70.0459 4.13417 68.1896C4.53656 66.3334 6.39155 65.1408 8.28725 65.5409C10.1829 65.9411 11.3811 67.7782 10.9787 69.6344C10.5763 71.4906 8.72136 72.6833 6.82566 72.2831Z" fill="#E0CCE1" stroke="#CBAACD"/>
</svg>
