<svg width="116" height="106" viewBox="0 0 116 106" fill="none" xmlns="http://www.w3.org/2000/svg">
<path fill-rule="evenodd" clip-rule="evenodd" d="M74.5165 0.574217C86.6781 2.11581 97.0812 9.0975 105.039 18.3778C112.322 26.8697 115.383 37.5968 115.831 48.7516C116.302 60.4925 114.524 72.1491 107.578 81.6513C99.2817 93.0004 88.572 104.119 74.5165 105.27C59.7136 106.482 47.3398 96.5105 35.5269 87.5507C20.9898 76.5248 0.103985 66.9402 0.000404228 48.7516C-0.103241 30.5515 19.7456 19.426 35.0825 9.51015C46.8345 1.91206 60.6143 -1.18801 74.5165 0.574217Z" fill="#F3F6FF"/>
<path d="M53.3337 63.5927L67.3337 53.0927L53.3337 42.5927V63.5927ZM81.3337 53.0927C81.3337 40.1661 70.927 29.7594 58.0003 29.7594C55.2703 29.7594 52.6337 30.2027 50.1137 31.0661L51.747 35.5927C53.7303 34.7994 55.807 34.3561 58.0003 34.3561C68.2903 34.3561 76.737 42.8027 76.737 53.0927C76.737 63.3827 68.2903 71.8294 58.0003 71.8294C47.7103 71.8294 39.2637 63.3827 39.2637 53.0927C39.2637 50.8994 39.707 48.7061 40.5003 46.7461L35.9737 45.2061C35.1103 47.7261 34.667 50.3627 34.667 53.0927C34.667 66.0194 45.0737 76.4261 58.0003 76.4261C70.927 76.4261 81.3337 66.0194 81.3337 53.0927ZM42.7637 34.3561C44.747 34.3561 46.3337 36.0127 46.3337 37.8561C46.3337 39.8394 44.747 41.4261 42.7637 41.4261C40.9203 41.4261 39.2637 39.8394 39.2637 37.8561C39.2637 36.0127 40.9203 34.3561 42.7637 34.3561Z" fill="#5C6DA1"/>
</svg>
