<svg width="116" height="106" viewBox="0 0 116 106" fill="none" xmlns="http://www.w3.org/2000/svg">
<path fill-rule="evenodd" clip-rule="evenodd" d="M74.5165 0.574217C86.6781 2.11581 97.0812 9.0975 105.039 18.3778C112.322 26.8697 115.383 37.5968 115.831 48.7516C116.302 60.4925 114.524 72.1491 107.578 81.6513C99.2817 93.0004 88.572 104.119 74.5165 105.27C59.7136 106.482 47.3398 96.5105 35.5269 87.5507C20.9898 76.5248 0.103985 66.9402 0.000404228 48.7516C-0.103241 30.5515 19.7456 19.426 35.0825 9.51015C46.8345 1.91206 60.6143 -1.18801 74.5165 0.574217Z" fill="#F3F6FF"/>
<path d="M78.9997 62.4262H36.9997V34.4262H78.9997V62.4262ZM78.9997 29.7595H36.9997C34.433 29.7595 32.333 31.8595 32.333 34.4262V62.4262C32.333 64.9929 34.433 67.0929 36.9997 67.0929H53.333V71.7595H48.6663V76.4262H67.333V71.7595H62.6663V67.0929H78.9997C81.5663 67.0929 83.6663 64.9929 83.6663 62.4262V34.4262C83.6663 31.8595 81.5663 29.7595 78.9997 29.7595ZM67.333 48.4262H60.333V39.0929H55.6663V48.4262H48.6663L57.9997 57.7595L67.333 48.4262Z" fill="#5C6DA1"/>
</svg>
