<svg width="110" height="40" viewBox="0 0 110 40" fill="none" xmlns="http://www.w3.org/2000/svg">
<path d="M38.136 22.208H42.344V24H36.12V13.216H38.136V22.208ZM47.262 24.128C46.0353 24.128 45.0753 23.744 44.382 22.976C43.6993 22.208 43.358 21.2267 43.358 20.032C43.358 18.7947 43.7153 17.776 44.43 16.976C45.1447 16.1653 46.0887 15.76 47.262 15.76C48.51 15.76 49.4753 16.1547 50.158 16.944C50.8407 17.7227 51.182 18.7147 51.182 19.92C51.182 21.1467 50.8353 22.1547 50.142 22.944C49.4593 23.7333 48.4993 24.128 47.262 24.128ZM47.262 17.328C46.654 17.328 46.1847 17.5787 45.854 18.08C45.534 18.5813 45.374 19.2107 45.374 19.968C45.374 20.7147 45.5393 21.3387 45.87 21.84C46.2007 22.3413 46.67 22.592 47.278 22.592C47.9073 22.592 48.382 22.3467 48.702 21.856C49.022 21.3653 49.182 20.7413 49.182 19.984C49.182 19.2053 49.0273 18.5707 48.718 18.08C48.4087 17.5787 47.9233 17.328 47.262 17.328ZM56.2289 22.176C56.7515 22.176 57.1889 21.9733 57.5409 21.568C57.8929 21.152 58.0689 20.6133 58.0689 19.952C58.0689 19.088 57.8982 18.4533 57.5569 18.048C57.2155 17.6427 56.7835 17.44 56.2609 17.44C55.7062 17.44 55.2689 17.6587 54.9489 18.096C54.6289 18.5227 54.4689 19.104 54.4689 19.84C54.4689 20.5973 54.6342 21.1787 54.9649 21.584C55.2955 21.9787 55.7169 22.176 56.2289 22.176ZM58.0689 15.888H59.9889V23.264C59.9889 24.544 59.6155 25.504 58.8689 26.144C58.1329 26.7947 57.1942 27.12 56.0529 27.12C54.9862 27.12 54.0529 26.928 53.2529 26.544V24.592C53.9782 25.104 54.8475 25.36 55.8609 25.36C57.3329 25.36 58.0689 24.656 58.0689 23.248V22.544C57.5782 23.344 56.8102 23.744 55.7649 23.744C54.8582 23.744 54.0795 23.4133 53.4289 22.752C52.7889 22.08 52.4689 21.1093 52.4689 19.84C52.4689 18.6667 52.7729 17.7013 53.3809 16.944C53.9995 16.176 54.8102 15.792 55.8129 15.792C56.8262 15.792 57.5782 16.2133 58.0689 17.056V15.888ZM62.0575 24V15.888H63.9775V24H62.0575ZM61.8655 13.456C61.8655 13.136 61.9775 12.864 62.2015 12.64C62.4255 12.416 62.6975 12.304 63.0175 12.304C63.3375 12.304 63.6095 12.416 63.8335 12.64C64.0575 12.864 64.1695 13.136 64.1695 13.456C64.1695 13.7867 64.0575 14.064 63.8335 14.288C63.6095 14.512 63.3375 14.624 63.0175 14.624C62.6975 14.624 62.4255 14.512 62.2015 14.288C61.9775 14.064 61.8655 13.7867 61.8655 13.456ZM68.0538 15.888V17.28C68.5124 16.288 69.3444 15.792 70.5498 15.792C71.3604 15.792 72.0004 16.0373 72.4698 16.528C72.9391 17.0187 73.1737 17.712 73.1737 18.608V24H71.2538V19.008C71.2538 18.4747 71.1258 18.0747 70.8698 17.808C70.6138 17.5307 70.2671 17.392 69.8298 17.392C69.3284 17.392 68.9071 17.5893 68.5658 17.984C68.2244 18.368 68.0538 18.9227 68.0538 19.648V24H66.1338V15.888H68.0538Z" fill="#0E6BA8"/>
<path d="M8 2H102V-2H8V2ZM108 8V32H112V8H108ZM102 38H8V42H102V38ZM2 32V8H-2V32H2ZM8 38C4.68629 38 2 35.3137 2 32H-2C-2 37.5228 2.47715 42 8 42V38ZM108 32C108 35.3137 105.314 38 102 38V42C107.523 42 112 37.5228 112 32H108ZM102 2C105.314 2 108 4.68629 108 8H112C112 2.47715 107.523 -2 102 -2V2ZM8 -2C2.47715 -2 -2 2.47715 -2 8H2C2 4.68629 4.68629 2 8 2V-2Z" fill="#0E6BA8"/>
</svg>
