<svg width="110" height="48" viewBox="0 0 110 48" fill="none" xmlns="http://www.w3.org/2000/svg">
<g filter="url(#filter0_d_183_557)">
<path d="M4 8C4 3.58172 7.58172 0 12 0H98C102.418 0 106 3.58172 106 8V32C106 36.4183 102.418 40 98 40H12C7.58172 40 4 36.4183 4 32V8Z" fill="#0E6BA8" shape-rendering="crispEdges"/>
<path d="M34.62 13.664V15.616C33.82 15.136 32.9667 14.896 32.06 14.896C31.5587 14.896 31.164 15.008 30.876 15.232C30.5987 15.456 30.46 15.744 30.46 16.096C30.46 16.448 30.6093 16.7413 30.908 16.976C31.2173 17.2 31.676 17.4507 32.284 17.728C32.7107 17.92 33.0573 18.0907 33.324 18.24C33.5907 18.3787 33.8787 18.576 34.188 18.832C34.508 19.088 34.7427 19.3973 34.892 19.76C35.052 20.112 35.132 20.5173 35.132 20.976C35.132 21.936 34.7853 22.704 34.092 23.28C33.4093 23.8453 32.508 24.128 31.388 24.128C30.172 24.128 29.164 23.8987 28.364 23.44V21.376C29.2813 22.0373 30.284 22.368 31.372 22.368C31.8627 22.368 32.2573 22.2507 32.556 22.016C32.8547 21.7707 33.004 21.4453 33.004 21.04C33.004 20.848 32.9667 20.6773 32.892 20.528C32.8173 20.3787 32.6627 20.2293 32.428 20.08C32.204 19.9307 32.028 19.824 31.9 19.76C31.7827 19.696 31.532 19.5787 31.148 19.408C31.0413 19.3547 30.9613 19.3173 30.908 19.296C30.5133 19.1147 30.1933 18.9547 29.948 18.816C29.7027 18.6667 29.436 18.4693 29.148 18.224C28.86 17.9787 28.6413 17.6853 28.492 17.344C28.3533 17.0027 28.284 16.6133 28.284 16.176C28.284 15.2587 28.62 14.5227 29.292 13.968C29.9747 13.4133 30.876 13.136 31.996 13.136C33.0093 13.136 33.884 13.312 34.62 13.664ZM36.9013 24V15.888H38.8213V24H36.9013ZM36.7093 13.456C36.7093 13.136 36.8213 12.864 37.0453 12.64C37.2693 12.416 37.5413 12.304 37.8613 12.304C38.1813 12.304 38.4533 12.416 38.6773 12.64C38.9013 12.864 39.0133 13.136 39.0133 13.456C39.0133 13.7867 38.9013 14.064 38.6773 14.288C38.4533 14.512 38.1813 14.624 37.8613 14.624C37.5413 14.624 37.2693 14.512 37.0453 14.288C36.8213 14.064 36.7093 13.7867 36.7093 13.456ZM44.3695 22.176C44.8922 22.176 45.3295 21.9733 45.6815 21.568C46.0335 21.152 46.2095 20.6133 46.2095 19.952C46.2095 19.088 46.0388 18.4533 45.6975 18.048C45.3562 17.6427 44.9242 17.44 44.4015 17.44C43.8468 17.44 43.4095 17.6587 43.0895 18.096C42.7695 18.5227 42.6095 19.104 42.6095 19.84C42.6095 20.5973 42.7748 21.1787 43.1055 21.584C43.4362 21.9787 43.8575 22.176 44.3695 22.176ZM46.2095 15.888H48.1295V23.264C48.1295 24.544 47.7562 25.504 47.0095 26.144C46.2735 26.7947 45.3348 27.12 44.1935 27.12C43.1268 27.12 42.1935 26.928 41.3935 26.544V24.592C42.1188 25.104 42.9882 25.36 44.0015 25.36C45.4735 25.36 46.2095 24.656 46.2095 23.248V22.544C45.7188 23.344 44.9508 23.744 43.9055 23.744C42.9988 23.744 42.2202 23.4133 41.5695 22.752C40.9295 22.08 40.6095 21.1093 40.6095 19.84C40.6095 18.6667 40.9135 17.7013 41.5215 16.944C42.1402 16.176 42.9508 15.792 43.9535 15.792C44.9668 15.792 45.7188 16.2133 46.2095 17.056V15.888ZM52.0381 15.888V17.28C52.4968 16.288 53.3288 15.792 54.5341 15.792C55.3448 15.792 55.9848 16.0373 56.4541 16.528C56.9235 17.0187 57.1581 17.712 57.1581 18.608V24H55.2381V19.008C55.2381 18.4747 55.1101 18.0747 54.8541 17.808C54.5981 17.5307 54.2515 17.392 53.8141 17.392C53.3128 17.392 52.8915 17.5893 52.5501 17.984C52.2088 18.368 52.0381 18.9227 52.0381 19.648V24H50.1181V15.888H52.0381ZM69.5658 19.872V13.216H71.5818V19.856C71.5818 21.2533 71.2031 22.32 70.4458 23.056C69.6991 23.7813 68.6698 24.144 67.3578 24.144C66.0778 24.144 65.0538 23.7867 64.2858 23.072C63.5284 22.3467 63.1497 21.312 63.1497 19.968V13.216H65.1658V19.952C65.1658 20.7733 65.3684 21.3707 65.7738 21.744C66.1791 22.1067 66.7071 22.288 67.3578 22.288C68.8298 22.288 69.5658 21.4827 69.5658 19.872ZM77.6166 22.464C78.1926 22.464 78.662 22.2453 79.0246 21.808C79.3873 21.36 79.5686 20.736 79.5686 19.936C79.5686 19.136 79.3873 18.5173 79.0246 18.08C78.662 17.632 78.2033 17.408 77.6486 17.408C77.094 17.408 76.614 17.616 76.2086 18.032C75.8033 18.448 75.6006 19.0667 75.6006 19.888C75.6006 20.7093 75.798 21.344 76.1926 21.792C76.5873 22.24 77.062 22.464 77.6166 22.464ZM75.6006 15.888V17.136C76.1766 16.2293 77.0033 15.776 78.0806 15.776C79.1366 15.776 79.974 16.1547 80.5926 16.912C81.222 17.6693 81.5366 18.6667 81.5366 19.904C81.5366 21.12 81.222 22.128 80.5926 22.928C79.974 23.7173 79.1313 24.112 78.0646 24.112C76.9766 24.112 76.1553 23.6693 75.6006 22.784V27.056H73.6806V15.888H75.6006Z" fill="#CAF0F8"/>
</g>
<defs>
<filter id="filter0_d_183_557" x="0" y="0" width="110" height="48" filterUnits="userSpaceOnUse" color-interpolation-filters="sRGB">
<feFlood flood-opacity="0" result="BackgroundImageFix"/>
<feColorMatrix in="SourceAlpha" type="matrix" values="0 0 0 0 0 0 0 0 0 0 0 0 0 0 0 0 0 0 127 0" result="hardAlpha"/>
<feOffset dy="4"/>
<feGaussianBlur stdDeviation="2"/>
<feComposite in2="hardAlpha" operator="out"/>
<feColorMatrix type="matrix" values="0 0 0 0 0 0 0 0 0 0 0 0 0 0 0 0 0 0 0.25 0"/>
<feBlend mode="normal" in2="BackgroundImageFix" result="effect1_dropShadow_183_557"/>
<feBlend mode="normal" in="SourceGraphic" in2="effect1_dropShadow_183_557" result="shape"/>
</filter>
</defs>
</svg>
